# xmcd
#
# Track frame offsets: 
#        150
#        13883
#        33008
#        52010
#        72962
#        91229
#        109153
#        124246
#        141696
#        158146
#        178560
#        196260
#        212161
#        228259
#        254900
#        272532
#        288257
#        301836
#
# Disc length: 4262 seconds
#
# Revision: 0
# Processed by: cddbd v1.5.2PL0 Copyright (c) Steve Scherf et al.
# Submitted via: ExactAudioCopy v1.1
#
DISCID=0910a412
DTITLE=Various Artist - Het Beste Uit de Q Top 1000 Editie 2018 - CD 3
DYEAR=2018
DGENRE=Top 40
TTITLE0=Avicii Feat. Sandro Cavazza - Without You
TTITLE1=Alain Clark - Father And Friend
TTITLE2=Spice Girls - Viva Forever
TTITLE3=Justin Timberlake - Mirrors
TTITLE4=John Mayer - In The Blood
TTITLE5=Paul De Leeuw and Simone Kleinsma - Zonder Jou
TTITLE6=Justin Bieber - Sorry
TTITLE7=Go - Wham! - Wake Me Up Before You Go
TTITLE8=Ali B., Yes-R and The Partysquad - Rampeneren
TTITLE9=Mark Ronson Feat. Bruno Mars - Uptown Funk
TTITLE10=Backstreet Boys - Show Me The Meaning Of Being Lonely
TTITLE11=Armin Van Buuren Feat. Josh Cumbee - Sunny Days
TTITLE12=Christina Perri - Jar Of Hearts
TTITLE13=Het Goede Doel - België
TTITLE14=Afrojack Feat. Wrabel - Ten Feet Tall
TTITLE15=Klein Orkest - Over De Muur
TTITLE16=B.O.B. Feat. Hayley Williams - Airplanes
TTITLE17=Maan - Jij Bent De Liefde
EXTD=
EXTT0=
EXTT1=
EXTT2=
EXTT3=
EXTT4=
EXTT5=
EXTT6=
EXTT7=
EXTT8=
EXTT9=
EXTT10=
EXTT11=
EXTT12=
EXTT13=
EXTT14=
EXTT15=
EXTT16=
EXTT17=
PLAYORDER=
